<svg xmlns="http://www.w3.org/2000/svg" width="20" height="22" viewBox="0 0 20 22">
  <path id="Bell" d="M10,22a3.985,3.985,0,0,1-4.039-3.836H1.726A1.521,1.521,0,0,1,0,16.665c0-1.1.96-2.039,1.888-2.944l.044-.043c.719-.713.9-2.132,1.038-3.648C3.136,5.794,4.4,3.386,6.937,2.453a3.145,3.145,0,0,1,6.136,0A5.157,5.157,0,0,1,16,5.129a11.951,11.951,0,0,1,1.03,4.9c.137,1.515.319,2.934,1.038,3.648l.04.039c.93.906,1.892,1.843,1.892,2.948a1.521,1.521,0,0,1-1.726,1.5H14.049A3.994,3.994,0,0,1,10,22ZM7.934,18.164a2.072,2.072,0,1,0,4.142,0ZM10,1.97c-.878,0-1.479.7-1.531,1.772a.484.484,0,0,1-.411.482A3.331,3.331,0,0,0,5.966,5.851a9.567,9.567,0,0,0-.951,4.441c-.112,2.162-.486,3.584-1.141,4.35-.305.356-.648.7-.924.984-.181.184-.338.343-.443.462v.126H17.472v-.126c-.1-.118-.255-.275-.43-.456-.271-.282-.609-.632-.917-.99-.645-.765-1.018-2.188-1.14-4.35-.107-3.653-1.046-5.525-3.043-6.069a.487.487,0,0,1-.41-.482C11.48,2.666,10.878,1.97,10,1.97Z" fill="#5c6ac4"/>
</svg>
