<svg id="Books" xmlns="http://www.w3.org/2000/svg" width="24" height="24" viewBox="0 0 24 24">
  <path id="Books-2" data-name="Books" d="M12,19H10a1,1,0,0,1-.447-.105A8.51,8.51,0,0,0,5.764,18H1a1,1,0,0,1-1-1V1A1,1,0,0,1,1,0H5.764A10.441,10.441,0,0,1,10.1.94l.128.06h1.545l.12-.056A10.428,10.428,0,0,1,15.862.006L16.236,0H21a1,1,0,0,1,1,1V17a1,1,0,0,1-1,1H16.236a8.489,8.489,0,0,0-3.475.745l-.331.157A.992.992,0,0,1,12,19ZM2,2V16H5.764A10.4,10.4,0,0,1,10,16.9V3a1.006,1.006,0,0,1-.429-.1l-.314-.149A8.425,8.425,0,0,0,5.764,2Zm13,.091a8.478,8.478,0,0,0-2.229.651l-.324.153A1,1,0,0,1,12,3v13.9a10.428,10.428,0,0,1,3.83-.886L16.236,16H20V2H17V7H15Z" transform="translate(1 3)" fill="#5c6ac4"/>
</svg>
