<svg xmlns="http://www.w3.org/2000/svg" width="24" height="24" viewBox="0 0 24 24">
  <path id="Cart" d="M21,24a3,3,0,1,1,3-3A3,3,0,0,1,21,24Zm0-4a1,1,0,1,0,1,1A1,1,0,0,0,21,20ZM8,24a3,3,0,1,1,3-3A3,3,0,0,1,8,24Zm0-4a1,1,0,1,0,1,1A1,1,0,0,0,8,20Zm10.4-4h-7.78a3.008,3.008,0,0,1-2.889-2.193l-.044-.178L5.53,3.581A1.987,1.987,0,0,0,3.74,2.007L3.575,2H0V0H3.575A4,4,0,0,1,7.438,2.966l.048.2L7.879,5H20.753a1.974,1.974,0,0,1,.291.021l.143.026a2.009,2.009,0,0,1,1.546,2.24l-.027.147-1.382,6.217a3.014,3.014,0,0,1-2.747,2.344ZM8.308,7l1.331,6.209a1,1,0,0,0,.861.784l.116.007H18.4a1,1,0,0,0,.944-.672l.031-.112L20.753,7Z" fill="#b3bcf5"/>
</svg>
