<?xml version="1.0" encoding="iso-8859-1"?>
<!-- Generator: Adobe Illustrator 18.0.0, SVG Export Plug-In . SVG Version: 6.00 Build 0)  -->
<!DOCTYPE svg PUBLIC "-//W3C//DTD SVG 1.1//EN" "http://www.w3.org/Graphics/SVG/1.1/DTD/svg11.dtd">
<svg version="1.1" id="Capa_1" xmlns="http://www.w3.org/2000/svg" xmlns:xlink="http://www.w3.org/1999/xlink" x="0px" y="0px"
	 viewBox="0 0 60 60" style="enable-background:new 0 0 60 60;" xml:space="preserve">
<g>
	<path d="M54.072,2.535L19.93,2.465c-3.27,0-5.93,2.66-5.93,5.93v5.124l-8.07,0.017c-3.27,0-5.93,2.66-5.93,5.93v21.141
		c0,3.27,2.66,5.93,5.929,5.93H12v10c0,0.413,0.254,0.784,0.639,0.933c0.118,0.046,0.24,0.067,0.361,0.067
		c0.276,0,0.547-0.114,0.74-0.327l9.704-10.675l16.626-0.068c3.27,0,5.93-2.66,5.93-5.93v-0.113l5.26,5.786
		c0.193,0.213,0.464,0.327,0.74,0.327c0.121,0,0.243-0.021,0.36-0.067c0.386-0.148,0.64-0.52,0.64-0.933v-10h1.07
		c3.27,0,5.93-2.66,5.93-5.93V8.465C60,5.195,57.341,2.536,54.072,2.535z M44,40.535c0,2.167-1.763,3.93-3.934,3.93l-17.07,0.07
		c-0.281,0.001-0.547,0.12-0.736,0.327L14,53.948v-8.413c0-0.553-0.448-1-1-1H5.929C3.763,44.535,2,42.772,2,40.605V19.465
		c0-2.167,1.763-3.93,3.932-3.93l9.068-0.019c0,0,0,0,0,0s0.002,0,0.002,0l24.87-0.051l0.198,0c2.167,0,3.93,1.763,3.93,3.93v18.44
		V40.535z M58,29.605c0,2.167-1.763,3.93-3.93,3.93H52c-0.553,0-1,0.447-1,1v8.413l-5-5.5V19.395v-0.001
		c0-3.27-2.66-5.929-5.931-5.929h0l0,0l-0.104,0L16,13.514v-5.12c0-2.167,1.763-3.93,3.928-3.93l34.141,0.07
		c0.001,0,0.001,0,0.002,0c2.167,0,3.93,1.763,3.93,3.93V29.605z"/>
	<path d="M12,26.449c-2.206,0-4,1.794-4,4s1.794,4,4,4s4-1.794,4-4S14.206,26.449,12,26.449z M12,32.449c-1.103,0-2-0.897-2-2
		s0.897-2,2-2s2,0.897,2,2S13.103,32.449,12,32.449z"/>
	<path d="M23,26.449c-2.206,0-4,1.794-4,4s1.794,4,4,4s4-1.794,4-4S25.206,26.449,23,26.449z M23,32.449c-1.103,0-2-0.897-2-2
		s0.897-2,2-2s2,0.897,2,2S24.103,32.449,23,32.449z"/>
	<path d="M34,26.449c-2.206,0-4,1.794-4,4s1.794,4,4,4s4-1.794,4-4S36.206,26.449,34,26.449z M34,32.449c-1.103,0-2-0.897-2-2
		s0.897-2,2-2s2,0.897,2,2S35.103,32.449,34,32.449z"/>
</g>
<g>
</g>
<g>
</g>
<g>
</g>
<g>
</g>
<g>
</g>
<g>
</g>
<g>
</g>
<g>
</g>
<g>
</g>
<g>
</g>
<g>
</g>
<g>
</g>
<g>
</g>
<g>
</g>
<g>
</g>
</svg>
