<?xml version="1.0" encoding="iso-8859-1"?>
<!-- Generator: Adobe Illustrator 19.0.0, SVG Export Plug-In . SVG Version: 6.00 Build 0)  -->
<svg version="1.1" id="Layer_1" xmlns="http://www.w3.org/2000/svg" xmlns:xlink="http://www.w3.org/1999/xlink" x="0px" y="0px"
	 viewBox="0 0 512 512" style="enable-background:new 0 0 512 512;" xml:space="preserve">
<g>
	<g>
		<g>
			<path d="M506.372,243.686V57.558c0-22.727-18.49-41.216-41.216-41.216H41.216C18.49,16.342,0,34.831,0,57.558v286.901
				c0,22.727,18.49,41.216,41.216,41.216h145.477l-18.105,74.655h-22.365c-9.755,0-17.664,7.909-17.664,17.664
				s7.909,17.664,17.664,17.664c13.855,0,330.279-0.005,336.336-0.005c16.233,0,29.44-13.207,29.44-29.44V261.05
				C512,254.65,509.979,248.618,506.372,243.686z M204.941,460.33l18.103-74.652h60.282l18.103,74.652H204.941z M330.708,408.896
				c0,2.961,0,3.933,0,3.913c0,3.258,0,8.924,0,18.351l-11.031-45.485h11.031C330.708,398.076,330.708,405.112,330.708,408.896z
				 M330.708,350.347H41.216c-3.247,0-5.888-2.641-5.888-5.888v-29.352h295.38V350.347z M330.708,261.049v18.73H35.328V57.558
				c0-3.245,2.641-5.888,5.888-5.888h423.94c3.247,0,5.888,2.641,5.888,5.888v174.051H360.148
				C343.915,231.609,330.708,244.816,330.708,261.049z M366.036,315.107h110.634v80.769H366.036
				C366.036,376.916,366.036,332.088,366.036,315.107z M476.672,460.324H366.036v-29.12h110.635V460.324z M476.672,279.78H366.036
				v-12.842h110.635V279.78z"/>
			<circle cx="421.349" cy="445.772" r="10.226"/>
		</g>
	</g>
</g>
<g>
</g>
<g>
</g>
<g>
</g>
<g>
</g>
<g>
</g>
<g>
</g>
<g>
</g>
<g>
</g>
<g>
</g>
<g>
</g>
<g>
</g>
<g>
</g>
<g>
</g>
<g>
</g>
<g>
</g>
</svg>
