<svg xmlns="http://www.w3.org/2000/svg" width="20" height="23.827" viewBox="0 0 20 23.827">
  <path id="Fire" d="M10,23.827a10.882,10.882,0,0,1-6.984-2.343A8.371,8.371,0,0,1,0,14.827,17.754,17.754,0,0,1,1.638,8.15,23.252,23.252,0,0,1,5.471,1.979a.987.987,0,0,1,.743-.331,1,1,0,0,1,.832.446L8.9,4.88,11.227.529A1,1,0,0,1,12.754.237,22.215,22.215,0,0,1,17.7,6.9,18.586,18.586,0,0,1,20,14.827a8.371,8.371,0,0,1-3.016,6.657A10.882,10.882,0,0,1,10,23.827ZM6.13,4.324l-.109.145c-2.213,2.992-3.9,7.216-4.015,10.045L2,14.827c0,4.121,3.29,7,8,7s8-2.878,8-7c0-3.754-2.842-9.169-5.475-12.034l-.153-.164L9.882,7.3a1,1,0,0,1-1.715.084Z" fill="#5c6ac4"/>
</svg>
