<svg id="Icon" xmlns="http://www.w3.org/2000/svg" width="205.5" height="151.5" viewBox="0 0 205.5 151.5">
  <g id="Background" transform="translate(58 38.438)">
    <path id="Path" d="M12.932.063s-7.03,3-5.523,10S29,24.563,29,24.563s-17.587-1.013-25.106-8.5c-5.021-5-4.809-9.163-1.506-13C5.4-.437,12.932.063,12.932.063Z" transform="translate(11 0)" fill="#e3d0ff"/>
    <path id="Path-2" data-name="Path" d="M-12.932.063s7.03,3,5.523,10S-29,24.563-29,24.563s17.587-1.013,25.106-8.5c5.021-5,4.809-9.163,1.506-13C-5.4-.437-12.932.063-12.932.063Z" transform="translate(74 0)" fill="#e3d0ff"/>
    <path id="Rectangle" d="M3,0H30a0,0,0,0,1,0,0V57a0,0,0,0,1,0,0H0a0,0,0,0,1,0,0V3A3,3,0,0,1,3,0Z" transform="translate(6 53.063)" fill="#b4e0fa"/>
    <path id="Rectangle-2" data-name="Rectangle" d="M3,0H28.5a0,0,0,0,1,0,0V54a3,3,0,0,1-3,3H0a0,0,0,0,1,0,0V3A3,3,0,0,1,3,0Z" transform="translate(56 53.063)" fill="#b4e0fa"/>
    <path id="Rectangle-3" data-name="Rectangle" d="M3,0h8a0,0,0,0,1,0,0V57a0,0,0,0,1,0,0H0a0,0,0,0,1,0,0V3A3,3,0,0,1,3,0Z" transform="translate(40 53.063)" fill="#fa9a88"/>
    <path id="Rectangle-4" data-name="Rectangle" d="M3,0H33a0,0,0,0,1,0,0V15a0,0,0,0,1,0,0H0a0,0,0,0,1,0,0V3A3,3,0,0,1,3,0Z" transform="translate(0 31.063)" fill="#e3d0ff"/>
    <path id="Rectangle-5" data-name="Rectangle" d="M3,0H9A0,0,0,0,1,9,0V15a0,0,0,0,1,0,0H0a0,0,0,0,1,0,0V3A3,3,0,0,1,3,0Z" transform="translate(40 31.063)" fill="#e3d0ff"/>
    <path id="Rectangle-6" data-name="Rectangle" d="M3,0H36a0,0,0,0,1,0,0V7a8,8,0,0,1-8,8H0a0,0,0,0,1,0,0V3A3,3,0,0,1,3,0Z" transform="translate(56 31.063)" fill="#e3d0ff"/>
  </g>
  <g id="Effect">
    <path id="Path-3" data-name="Path" d="M5.856.007,6,0A1.5,1.5,0,0,1,7.493,1.356L7.5,1.5v3h3a1.5,1.5,0,0,1,1.493,1.356L12,6a1.5,1.5,0,0,1-1.356,1.493L10.5,7.5h-3v3a1.5,1.5,0,0,1-1.356,1.493L6,12a1.5,1.5,0,0,1-1.493-1.356L4.5,10.5v-3h-3A1.5,1.5,0,0,1,.007,6.144L0,6A1.5,1.5,0,0,1,1.356,4.507L1.5,4.5h3v-3A1.5,1.5,0,0,1,5.856.007L6,0Z" transform="translate(56.5 14)" fill="#eec200"/>
    <path id="Path-4" data-name="Path" d="M5.856.007,6,0A1.5,1.5,0,0,1,7.493,1.356L7.5,1.5v3h3a1.5,1.5,0,0,1,1.493,1.356L12,6a1.5,1.5,0,0,1-1.356,1.493L10.5,7.5h-3v3a1.5,1.5,0,0,1-1.356,1.493L6,12a1.5,1.5,0,0,1-1.493-1.356L4.5,10.5v-3h-3A1.5,1.5,0,0,1,.007,6.144L0,6A1.5,1.5,0,0,1,1.356,4.507L1.5,4.5h3v-3A1.5,1.5,0,0,1,5.856.007L6,0Z" transform="translate(159.5 90)" fill="#f49342"/>
    <path id="Path-5" data-name="Path" d="M5.856.007,6,0A1.5,1.5,0,0,1,7.493,1.356L7.5,1.5v3h3a1.5,1.5,0,0,1,1.493,1.356L12,6a1.5,1.5,0,0,1-1.356,1.493L10.5,7.5h-3v3a1.5,1.5,0,0,1-1.356,1.493L6,12a1.5,1.5,0,0,1-1.493-1.356L4.5,10.5v-3h-3A1.5,1.5,0,0,1,.007,6.144L0,6A1.5,1.5,0,0,1,1.356,4.507L1.5,4.5h3v-3A1.5,1.5,0,0,1,5.856.007L6,0Z" transform="translate(24.5 106)" fill="#5c6ac4"/>
    <path id="Path-6" data-name="Path" d="M5.856.007,6,0A1.5,1.5,0,0,1,7.493,1.356L7.5,1.5v3h3a1.5,1.5,0,0,1,1.493,1.356L12,6a1.5,1.5,0,0,1-1.356,1.493L10.5,7.5h-3v3a1.5,1.5,0,0,1-1.356,1.493L6,12a1.5,1.5,0,0,1-1.493-1.356L4.5,10.5v-3h-3A1.5,1.5,0,0,1,.007,6.144L0,6A1.5,1.5,0,0,1,1.356,4.507L1.5,4.5h3v-3A1.5,1.5,0,0,1,5.856.007L6,0Z" transform="translate(175.5 28)" fill="#50b83c"/>
    <path id="Oval" d="M0,4.5A4.5,4.5,0,1,1,4.5,9,4.5,4.5,0,0,1,0,4.5Z" transform="translate(18.5 53)" fill="#e3d0ff"/>
    <path id="Oval-2" data-name="Oval" d="M0,4.5A4.5,4.5,0,1,1,4.5,9,4.5,4.5,0,0,1,0,4.5Z" transform="translate(96.5)" fill="#47c1bf"/>
    <path id="Oval-3" data-name="Oval" d="M0,4.5A4.5,4.5,0,1,1,4.5,9,4.5,4.5,0,0,1,0,4.5Z" transform="translate(196.5 71)" fill="#eec200"/>
    <circle id="Oval-4" data-name="Oval" cx="3" cy="3" r="3" transform="translate(152 39.5)" fill="#fa9a88"/>
    <circle id="Oval-5" data-name="Oval" cx="3" cy="3" r="3" transform="translate(35 81.5)" fill="#bbe5b3"/>
    <circle id="Oval-6" data-name="Oval" cx="3" cy="3" r="3" transform="translate(0 69.5)" fill="#00848e"/>
    <circle id="Oval-7" data-name="Oval" cx="3" cy="3" r="3" transform="translate(22 20.5)" fill="#fa9a88"/>
    <circle id="Oval-8" data-name="Oval" cx="3" cy="3" r="3" transform="translate(174 123.5)" fill="#b3bcf5"/>
    <circle id="Oval-9" data-name="Oval" cx="3" cy="3" r="3" transform="translate(141 7.5)" fill="#b4e0fa"/>
    <circle id="Oval-10" data-name="Oval" cx="3" cy="3" r="3" transform="translate(8 134.5)" fill="#eec200"/>
  </g>
  <g id="Gift_box" data-name="Gift box" transform="translate(35 36.5)">
    <path id="Shape" d="M129.5,115h-5a1.5,1.5,0,0,1-.144-2.993L124.5,112h5a1.5,1.5,0,0,1,.144,2.993L129.5,115Zm-11,0h-1a1.5,1.5,0,0,1-.145-2.993L117.5,112h1a1.5,1.5,0,0,1,.144,2.993Zm-7,0h-91a1.5,1.5,0,0,1-.145-2.993L20.5,112h3a7.447,7.447,0,0,1-1.5-4.258l0-.243V79a1.5,1.5,0,0,1,2.993-.145L25,79v28.5a4.492,4.492,0,0,0,4.288,4.5l.212,0H56V51H25V64a1.5,1.5,0,0,1-2.993.145L22,64V50.85a7.5,7.5,0,0,1-6-7.107l0-.243v-10A7.5,7.5,0,0,1,23.257,26l.243,0h7a1.5,1.5,0,0,1,.144,2.993L30.5,29h-7a4.49,4.49,0,0,0-4.495,4.288L19,33.5v10A4.492,4.492,0,0,0,23.288,48l.212,0H56V29H47.5a1.5,1.5,0,0,1-.145-2.993L47.5,26h2.131a40.9,40.9,0,0,1-12.378-6.311,13.594,13.594,0,0,1-4.671-5.911,8.761,8.761,0,0,1-.123-5.937,10.594,10.594,0,0,1,4.715-5.578A16.937,16.937,0,0,1,45.969,0,10.951,10.951,0,0,1,51.35,1.453,18.565,18.565,0,0,1,56.377,5.8,40.889,40.889,0,0,1,61.079,13a86.732,86.732,0,0,1,4.408,10.048A86.7,86.7,0,0,1,69.894,13,40.88,40.88,0,0,1,74.6,5.8a18.564,18.564,0,0,1,5.027-4.343A10.951,10.951,0,0,1,85,0,16.936,16.936,0,0,1,93.8,2.263a10.6,10.6,0,0,1,4.715,5.578,8.762,8.762,0,0,1-.123,5.937,13.593,13.593,0,0,1-4.671,5.911A40.921,40.921,0,0,1,81.341,26H89.5a1.5,1.5,0,0,1,.145,2.993L89.5,29H75V48h32.5a4.492,4.492,0,0,0,4.5-4.288l0-.212v-10a4.505,4.505,0,0,0-4.5-4.5,1.5,1.5,0,0,1,0-3,7.5,7.5,0,0,1,7.5,7.258l0,.242v10a7.5,7.5,0,0,1-6,7.35V89a1.5,1.5,0,0,1-2.993.144L106,89V51H75v5a1.5,1.5,0,0,1-2.992.145L72,56V51H59v61H72V76a1.5,1.5,0,0,1,2.993-.144L75,76v36h26.5a4.491,4.491,0,0,0,4.495-4.288L106,107.5V106a1.5,1.5,0,0,1,2.993-.145L109,106v1.5a7.435,7.435,0,0,1-1.5,4.5l4,0a1.5,1.5,0,0,1,.144,2.993ZM59,29V48H72V29ZM45.969,3C41.38,3,37.35,4.928,35.7,7.913c-1.674,3.033-.442,6.458,3.38,9.4,5.063,3.895,11.908,6.566,20.345,7.939l-.8-.555c-.826-.581-1.719-1.227-2.652-1.921l-.968-.726-1.2-.914-1.229-.949a16.733,16.733,0,0,1-5.288-6.3,5.672,5.672,0,0,1,.447-5.92,5.913,5.913,0,0,1,4.126-2.5A9.145,9.145,0,0,0,45.969,3ZM85,3a9.141,9.141,0,0,0-5.891,2.47,5.908,5.908,0,0,1,4.151,2.5,5.672,5.672,0,0,1,.447,5.92,16.733,16.733,0,0,1-5.288,6.3l-1.229.949-1.2.914-.967.724c-1.3.963-2.424,1.772-3.447,2.472C80,23.87,86.832,21.2,91.89,17.311c3.822-2.939,5.053-6.365,3.38-9.4C93.622,4.928,89.592,3,85,3ZM78.45,8.431h0a5.791,5.791,0,0,0-2.721.879l-.11.054a63.246,63.246,0,0,0-7.186,14.369c2.067-1.332,4.808-3.322,8.146-5.918,3.788-2.946,5.595-6.324,4.3-8.032A2.971,2.971,0,0,0,78.45,8.432Zm-25.9,0a2.934,2.934,0,0,0-2.424,1.353c-1.3,1.708.508,5.085,4.3,8.032l.9.694c2.908,2.238,5.334,3.988,7.212,5.2l-.025-.065a62.923,62.923,0,0,0-7.168-14.3l-.065-.031A5.791,5.791,0,0,0,52.55,8.432ZM14.5,115h-2a1.5,1.5,0,0,1-.145-2.993L12.5,112h2a1.5,1.5,0,0,1,.145,2.993Zm-8,0h-5a1.5,1.5,0,0,1-.145-2.993L1.5,112h5a1.5,1.5,0,0,1,.145,2.993Zm101-13.5a1.493,1.493,0,0,1-1.493-1.355L106,100V95a1.5,1.5,0,0,1,2.993-.145L109,95v5A1.5,1.5,0,0,1,107.5,101.5Zm-84-27a1.493,1.493,0,0,1-1.493-1.355L22,73V70a1.5,1.5,0,0,1,2.993-.145L25,70v3A1.5,1.5,0,0,1,23.5,74.5Zm50-3a1.492,1.492,0,0,1-1.493-1.355L72,70V62a1.5,1.5,0,0,1,2.993-.145L75,62v8A1.5,1.5,0,0,1,73.5,71.5Zm28-42.5h-6a1.5,1.5,0,0,1-.144-2.993L95.5,26h6a1.5,1.5,0,0,1,.144,2.993Zm-60,0h-5a1.5,1.5,0,0,1-.145-2.993L36.5,26h5a1.5,1.5,0,0,1,.145,2.993Z" fill="#202e78"/>
  </g>
</svg>
