<svg xmlns="http://www.w3.org/2000/svg" width="24.001" height="20.5" viewBox="0 0 24.001 20.5">
  <path id="Love" d="M12,20.5c-1.005,0-3.285-2.069-8.712-7.9L1.771,10.954A6.56,6.56,0,0,1,0,6.43,6.563,6.563,0,0,1,1.771,1.9a5.9,5.9,0,0,1,8.468-.221l.22.221L12,3.541,13.543,1.9a5.9,5.9,0,0,1,8.51-.181l.177.181A6.569,6.569,0,0,1,24,6.429a6.545,6.545,0,0,1-1.763,4.517C15.577,18.179,13.089,20.5,12,20.5ZM6.115,2A3.946,3.946,0,0,0,3.226,3.276a4.668,4.668,0,0,0,.008,6.315C5.793,12.37,7.867,14.546,9.4,16.06l.65.635c.516.5.96.9,1.319,1.209l.29.24c.119.1.228.178.326.247L12,18.4l.116-.083.227-.176c.454-.364,1.072-.926,1.836-1.669l.423-.415c1.237-1.222,2.837-2.885,4.754-4.944l1.419-1.533a4.664,4.664,0,0,0,0-6.307,3.907,3.907,0,0,0-5.776,0L12,6.46,9.019,3.293l-.18-.181-.151-.138A3.939,3.939,0,0,0,6.115,2Z" fill="#b3bcf5"/>
</svg>
