<svg xmlns="http://www.w3.org/2000/svg" width="20" height="20.885" viewBox="0 0 20 20.885">
  <path id="Order" d="M9.114,20.678,5.909,19.1,2.75,20.372A2,2,0,0,1,0,18.517V3A3,3,0,0,1,3,0H17a3,3,0,0,1,3,3V18.517a2,2,0,0,1-2.749,1.854L14.091,19.1l-3.206,1.583a2,2,0,0,1-1.771,0ZM6.8,17.3,10,18.885,13.206,17.3a2.014,2.014,0,0,1,.886-.206,1.991,1.991,0,0,1,.749.145L18,18.517V3a1,1,0,0,0-1-1H3A1,1,0,0,0,2,3V18.517L5.16,17.24a2,2,0,0,1,.749-.145A2.021,2.021,0,0,1,6.8,17.3ZM5,12V10H15v2ZM5,8V6H15V8Z" fill="#5c6ac4"/>
</svg>
