<svg xmlns="http://www.w3.org/2000/svg" width="20" height="22" viewBox="0 0 20 22">
  <path id="Person" d="M17.469,22H2.543C.811,22,.246,20.592.077,19.41A9.056,9.056,0,0,1,0,18a5,5,0,0,1,2.664-4.387A14.472,14.472,0,0,1,10.006,12a14.436,14.436,0,0,1,7.332,1.614A5,5,0,0,1,20,18a9.17,9.17,0,0,1-.076,1.409C19.684,21.1,18.835,22,17.469,22Zm-7.463-8a13.249,13.249,0,0,0-5.981,1.126A3.268,3.268,0,0,0,2,18a7.614,7.614,0,0,0,.057,1.128c.09.628.227.872.487.872H17.469c.253,0,.386-.244.474-.871A5.725,5.725,0,0,0,18,18.4l0-.4a3.268,3.268,0,0,0-2.023-2.874A13.209,13.209,0,0,0,10.006,14ZM10,10a5,5,0,1,1,3.527-8.568A4.879,4.879,0,0,1,15,4.945,5.034,5.034,0,0,1,10,10Zm0-8A2.985,2.985,0,0,0,7,4.964a3,3,0,1,0,6-.019A2.976,2.976,0,0,0,10,2Z" fill="#b3bcf5"/>
</svg>
