<svg xmlns="http://www.w3.org/2000/svg" width="22" height="21.999" viewBox="0 0 22 21.999">
  <path id="Shoes" d="M19,22H2a2.007,2.007,0,0,1-1.994-1.85L0,20V18.5a4.126,4.126,0,0,1,3.024-3.969l.2-.05,4.993-1.11a1,1,0,0,0,.777-.86L9,12.4V6.126L8.03,2.243a.991.991,0,0,1,.118-.766,1,1,0,0,1,.631-.452l.109-.018L9,1H19.584l.709-.707a1,1,0,0,1,1.5,1.32l-.083.094L21,2.414V4.907a26.137,26.137,0,0,1-.632,5.711l-.148.624-.344,1.372a3.538,3.538,0,0,0,.268,2.437,8.051,8.051,0,0,1,.848,3.282l.007.342V20a2.006,2.006,0,0,1-1.85,1.994ZM11,12v.4a2.982,2.982,0,0,1-2.349,2.929l-4.993,1.11A2.1,2.1,0,0,0,2,18.5V20H19V18.677a6.135,6.135,0,0,0-.644-2.73l-.12-.256a5.56,5.56,0,0,1-.3-3.561l.343-1.373A24.164,24.164,0,0,0,19,4.907V3H10.281l.689,2.758a1.086,1.086,0,0,1,.023.121L11,6h3V8H11v2h3v2Z" fill="#5c6ac4"/>
</svg>
