<svg xmlns="http://www.w3.org/2000/svg" width="23.281" height="22.288" viewBox="0 0 23.281 22.288">
  <path id="Star" d="M5.377,22.288A1.51,1.51,0,0,1,4.186,21.7L4.1,21.584a1.507,1.507,0,0,1-.185-1.161L5.487,14.16.539,10.018a1.5,1.5,0,0,1-.28-1.991L.352,7.9A1.505,1.505,0,0,1,1.4,7.371l6.44-.444L10.25.94a1.5,1.5,0,0,1,2.783,0l2.411,5.988,6.44.444a1.493,1.493,0,0,1,1.4,1.454l0,.145a1.506,1.506,0,0,1-.534,1.048L17.795,14.16l1.569,6.263a1.493,1.493,0,0,1-.952,1.778l-.139.042a1.5,1.5,0,0,1-1.161-.184l-5.47-3.428-5.47,3.428A1.5,1.5,0,0,1,5.377,22.288Zm6.265-6.015h0L17.121,19.7,15.55,13.432l4.957-4.151-6.45-.444-2.416-6-2.416,6-6.451.444,4.958,4.151L6.162,19.7l5.48-3.431Z" fill="#5c6ac4"/>
</svg>
