<svg id="T-shirt" xmlns="http://www.w3.org/2000/svg" width="24" height="24" viewBox="0 0 24 24">
  <path id="T-shirt-2" data-name="T-shirt" d="M19.629,21.869h-16v-12H1.263L0,1.031l6.476-1A2.979,2.979,0,0,1,6.933,0,3.024,3.024,0,0,1,9.054.878l1.283,1.283a1.826,1.826,0,0,0,2.586,0L14.207.878A3.02,3.02,0,0,1,16.327,0a2.979,2.979,0,0,1,.456.035l6.476,1L22,9.869H19.63v12h0ZM6.781,2.012l-4.522.7L3,7.87H3.63A2.007,2.007,0,0,1,5.624,9.72l.005.149v10h12v-10a2.006,2.006,0,0,1,1.85-1.994l.149-.005h.633L21,2.707l-4.52-.7A.965.965,0,0,0,16.327,2a1,1,0,0,0-.707.293L14.337,3.577a3.828,3.828,0,0,1-5.414,0L7.639,2.293A1,1,0,0,0,6.933,2,.962.962,0,0,0,6.781,2.012ZM9.63,9.869v-2h4v2Z" transform="translate(0.37 1.131)" fill="#5c6ac4"/>
</svg>
